# xmcd
#
# Track frame offsets: 
#        150
#        11291
#        22087
#        31737
#        43808
#        59515
#        74630
#        91202
#        104958
#        116471
#        128755
#        141890
#        154586
#        167733
#        183798
#
# Disc length: 2724 seconds
#
# Revision: 0
# Processed by: cddbd v1.5.2PL0 Copyright (c) Steve Scherf et al.
# Submitted via: ExactAudioCopy v0.99pb3
#
DISCID=cb0aa20f
DTITLE=Various Artist - SOULVILLES, U.S.A
DYEAR=2007
DGENRE=Soul
TTITLE0=HOLD ON I'M COMIN
TTITLE1=SOUL LIMBO
TTITLE2=RESPECT
TTITLE3=WHAT A MAN
TTITLE4=STARTING ALL OVER AGAIN
TTITLE5=IF YOU READY
TTITLE6=BREAKING UP SOMEBODY'S HOME
TTITLE7=KNOCK ON WOOD
TTITLE8=MR. BIG STUFF
TTITLE9=GROOVIN
TTITLE10=I'VE BEEN LOVING YOU TOO LONG
TTITLE11=WHO'S MAKING LOVE
TTITLE12=B-A-B-Y
TTITLE13=DEDICATED TO THE ONE I LOVE
TTITLE14=WALK ON BY
EXTD=
EXTT0=HOLD ON I'M COMIN
EXTT1=
EXTT2=
EXTT3=
EXTT4=
EXTT5=
EXTT6=
EXTT7=
EXTT8=
EXTT9=
EXTT10=
EXTT11=
EXTT12=
EXTT13=
EXTT14=
PLAYORDER=
